<svg width="22" height="15" viewBox="0 0 22 15" xmlns="http://www.w3.org/2000/svg"><title>behance</title><desc>Created with Sketch Beta.</desc><g fill="none" fill-rule="evenodd"><path d="M10.406 1.753c.41.6.614 1.32.614 2.155 0 .862-.207 1.554-.62 2.078-.23.294-.57.562-1.018.804.682.262 1.196.677 1.543 1.245.347.568.52 1.258.52 2.068 0 .837-.198 1.587-.594 2.25-.252.44-.567.812-.945 1.112-.427.344-.93.58-1.51.708s-1.21.192-1.888.192H.487V.25h6.457c1.63.025 2.783.527 3.462 1.503zM3.152 2.7v3.114H6.4c.58 0 1.05-.117 1.412-.35.362-.233.543-.646.543-1.24 0-.658-.24-1.092-.718-1.302-.412-.147-.94-.22-1.578-.22H3.15zm0 5.45v3.763h3.244c.58 0 1.03-.083 1.353-.25.584-.305.877-.892.877-1.76 0-.735-.284-1.24-.85-1.514-.318-.154-.763-.234-1.336-.24H3.153zm16.266-4.01c.69.325 1.258.84 1.707 1.543.404.62.667 1.34.787 2.157.07.48.098 1.17.085 2.072h-7.195c.04 1.047.384 1.78 1.033 2.202.394.262.87.393 1.424.393.587 0 1.066-.16 1.433-.48.2-.17.378-.41.532-.717h2.637c-.07.62-.388 1.248-.957 1.886-.885 1.016-2.124 1.523-3.717 1.523-1.315 0-2.475-.43-3.48-1.285-1.005-.856-1.507-2.25-1.507-4.18 0-1.807.454-3.194 1.362-4.158.907-.965 2.085-1.448 3.532-1.448.86 0 1.635.162 2.324.49zm-3.865 2.356c-.365.398-.594.936-.688 1.616h4.45c-.047-.725-.276-1.274-.688-1.65-.412-.375-.922-.562-1.532-.562-.663 0-1.177.2-1.542.596zm4.275-5.435h-5.804v1.426h5.804V1.06z" fill="#000"/></g></svg>