<svg width="16" height="17" viewBox="0 0 16 17" xmlns="http://www.w3.org/2000/svg"><title>linkedin</title><desc>Created with Sketch Beta.</desc><g fill="none" fill-rule="evenodd"><path d="M0 2.348c0-.53.184-.966.552-1.313C.92.69 1.4.515 1.992.515c.594 0 1.07.174 1.426.52.357.347.54.784.546 1.313.007.52-.173.957-.54 1.307-.37.35-.853.525-1.453.525h-.02c-.586 0-1.057-.175-1.414-.525C.18 3.305 0 2.87 0 2.348zm.204 13.896V5.626H3.74v10.618H.203zm5.13.21c.014-2.85 0-5.696 0-7.467v-3.2l3.88-.16v1.542c.122-.23.268-.43.418-.6.15-.172.352-.358.606-.558.253-.2.564-.355.932-.466.368-.11.776-.166 1.226-.166 1.222 0 2.204.405 2.947 1.216.743.81.657 1.893.657 3.458v6.4h-3.2l.132-5.89c0-.75-.144-1.336-.434-1.76-.29-.426-.74-.64-1.355-.64-.45 0-.827.125-1.13.37-.304.248-.796 1.155-.946 1.52-.08.214 0 6.4 0 6.4H5.333z" fill="#000"/></g></svg>