<svg width="15" height="19" viewBox="0 0 15 19" xmlns="http://www.w3.org/2000/svg"><title>pinterest</title><desc>Created with Sketch Beta.</desc><g fill="none" fill-rule="evenodd"><path d="M7.957.25C2.667.25 0 3.864 0 6.877c0 1.825.725 3.448 2.28 4.053.255.1.483.003.557-.266.052-.186.174-.656.228-.85.074-.267.046-.36-.16-.592-.45-.504-.735-1.157-.735-2.08 0-2.682 2.105-5.082 5.482-5.082 2.99 0 4.632 1.74 4.632 4.066 0 3.06-1.42 5.64-3.53 5.64-1.164 0-2.036-.918-1.757-2.043.335-1.344.983-2.795.983-3.765 0-.868-.49-1.592-1.502-1.592-1.19 0-2.147 1.173-2.147 2.746 0 1 .356 1.678.356 1.678l-1.432 5.78c-.425 1.717-.064 3.82-.033 4.032.02.126.19.156.265.06.11-.136 1.53-1.804 2.01-3.47.137-.472.784-2.916.784-2.916.386.703 1.516 1.322 2.72 1.322 3.578 0 6.006-3.11 6.006-7.27C15.006 3.18 12.21.25 7.956.25z" fill="#000"/></g></svg>