<svg width="16" height="13" viewBox="0 0 16 13" xmlns="http://www.w3.org/2000/svg"><title>vimeo</title><desc>Created with Sketch Beta.</desc><g fill="none" fill-rule="evenodd"><path d="M15.555 3c-.07 1.46-1.127 3.458-3.174 5.995-2.115 2.65-3.905 3.974-5.37 3.974-.906 0-1.674-.807-2.3-2.42-.42-1.48-.84-2.96-1.257-4.44-.466-1.612-.965-2.42-1.5-2.42-.116 0-.523.237-1.22.707L0 3.487c.768-.65 1.526-1.3 2.27-1.95C3.296.684 4.066.237 4.578.19c1.21-.11 1.957.686 2.237 2.394.302 1.842.51 2.987.63 3.436.348 1.528.732 2.29 1.152 2.29.325 0 .815-.494 1.467-1.486.652-.99 1-1.745 1.048-2.264.094-.855-.256-1.284-1.047-1.284-.373 0-.757.082-1.152.246.766-2.414 2.227-3.586 4.384-3.52 1.6.046 2.353 1.045 2.26 3z" fill="#000"/></g></svg>